<svg width="44" height="43" viewBox="0 0 44 43" fill="none" xmlns="http://www.w3.org/2000/svg">
<path d="M43.75 21.5C43.75 33.2307 34.0176 42.75 22 42.75C9.98236 42.75 0.25 33.2307 0.25 21.5C0.25 9.76934 9.98236 0.25 22 0.25C34.0176 0.25 43.75 9.76934 43.75 21.5Z" fill="white" stroke="#8A8A8A" stroke-width="0.5"/>
<path d="M30 13H16C14.8954 13 14 13.8954 14 15V29C14 30.1046 14.8954 31 16 31H30C31.1046 31 32 30.1046 32 29V15C32 13.8954 31.1046 13 30 13Z" stroke="black" stroke-width="2" stroke-linecap="round" stroke-linejoin="round"/>
<path d="M27 11V15" stroke="black" stroke-width="2" stroke-linecap="round" stroke-linejoin="round"/>
<path d="M19 11V15" stroke="black" stroke-width="2" stroke-linecap="round" stroke-linejoin="round"/>
<path d="M14 19H32" stroke="black" stroke-width="2" stroke-linecap="round" stroke-linejoin="round"/>
</svg>
