<svg width="100" height="122" viewBox="0 0 100 122" fill="none" xmlns="http://www.w3.org/2000/svg">
<rect x="0.5" y="0.5" width="99" height="93" rx="8.5" fill="#FFFCF2"/>
<rect x="0.5" y="0.5" width="99" height="93" rx="8.5" stroke="#EAEAEA"/>
<g clip-path="url(#clip0_574_1439)">
<mask id="mask0_574_1439" style="mask-type:luminance" maskUnits="userSpaceOnUse" x="8" y="8" width="84" height="78">
<path d="M92 8H8V86H92V8Z" fill="white"/>
</mask>
<g mask="url(#mask0_574_1439)">
<path d="M52.7857 8H47.2143C27.2137 8 11 25.4609 11 47C11 68.5391 27.2137 86 47.2143 86H52.7857C72.7863 86 89 68.5391 89 47C89 25.4609 72.7863 8 52.7857 8Z" fill="white"/>
<path d="M49.5 79C67.4493 79 82 64.6731 82 47C82 29.3269 67.4493 15 49.5 15C31.5507 15 17 29.3269 17 47C17 64.6731 31.5507 79 49.5 79Z" fill="#E0E8E2"/>
<path d="M42.6925 58.7508C44.8344 59.9423 47.969 60.9392 49.4056 60.9392C53.8463 60.9392 60.3504 55.1277 60.8467 48.5866C60.8728 48.3921 60.7945 48.1976 60.6377 48.0517C56.6673 43.8693 55.7531 38.5927 55.5703 37.3283C55.6225 37.1338 55.5442 37.0365 55.5442 37.0365C55.4919 36.9879 55.3351 37.1095 55.2828 37.1824C54.7343 37.8633 54.1596 38.3739 53.7156 38.6657C53.5066 38.7873 53.2193 38.7143 53.1409 38.4712C52.5401 36.8663 50.3983 35.7477 49.7191 35.4073C49.5885 35.3344 49.4318 35.3344 49.275 35.383C47.8122 35.8207 39.7669 38.69 38.722 47.1763C38.4869 48.9514 38.5392 50.4833 38.7481 51.7721C39.4273 56.1246 43.1626 56.6596 44.6254 56.7082C44.8344 56.7082 44.9389 56.9514 44.7822 57.0973C40.0853 59.8936 32.5312 54.4225 32.5312 54.4225" fill="#FDF8E5"/>
<path d="M42.6925 58.7508C44.8344 59.9423 47.969 60.9392 49.4056 60.9392C53.8463 60.9392 60.3504 55.1277 60.8467 48.5866C60.8728 48.3921 60.7945 48.1976 60.6377 48.0517C56.6673 43.8693 55.7531 38.5927 55.5703 37.3283C55.6225 37.1338 55.5442 37.0365 55.5442 37.0365C55.4919 36.9879 55.3351 37.1095 55.2828 37.1824C54.7343 37.8633 54.1596 38.3739 53.7156 38.6657C53.5066 38.7873 53.2193 38.7143 53.1409 38.4712C52.5401 36.8663 50.3983 35.7477 49.7191 35.4073C49.5885 35.3344 49.4318 35.3344 49.275 35.383C47.8122 35.8207 39.7669 38.69 38.722 47.1763C38.4869 48.9514 38.5392 50.4833 38.7481 51.7721C39.4273 56.1246 43.1626 56.6596 44.6254 56.7082C44.8344 56.7082 44.9389 56.9514 44.7822 57.0973C40.0853 59.8936 32.5312 54.4225 32.5312 54.4225" stroke="#3A643C" stroke-miterlimit="10" stroke-linecap="round" stroke-linejoin="round"/>
<path d="M56.4854 43.9179C62.0973 43.9179 66.6466 39.683 66.6466 34.4589C66.6466 29.2349 62.0973 25 56.4854 25C50.8735 25 46.3242 29.2349 46.3242 34.4589C46.3242 39.683 50.8735 43.9179 56.4854 43.9179Z" stroke="#3A643C" stroke-miterlimit="10" stroke-linecap="round" stroke-linejoin="round"/>
<path d="M65.757 38.0864L64.4883 40.128L74.731 45.6433L75.9996 43.6017L65.757 38.0864Z" fill="#3A643C"/>
<path d="M36.0943 56.9149C30.7736 62.8724 29.1873 56.9026 29.0044 53.0121C28.8216 49.1215 34.3854 42.7507 35.587 40.3434C36.7886 37.9604 35.0646 32.9513 41.9083 29.7659C47.6289 27.0912 51.2598 29.7902 52.2785 30.7385C52.4352 30.8844 52.6965 30.8844 52.8532 30.7385C55.7788 27.8206 61.4993 31.1276 61.9173 36.8662C62.3614 42.7993 64.5033 44.4285 65.3914 45.62C67.0632 47.8814 71.1904 55.6382 67.246 58.1428C63.2756 60.6716 61.6822 57.5349 61.6822 57.5349C61.6822 57.5349 59.3574 59.9421 56.5624 58.9695C56.1184 58.8236 55.7527 58.5561 55.4653 58.2887" stroke="#3A643C" stroke-miterlimit="10" stroke-linecap="round" stroke-linejoin="round"/>
<path d="M44.3125 59.5532V65" stroke="#3A643C" stroke-miterlimit="10" stroke-linecap="round" stroke-linejoin="round"/>
<path d="M54.2656 59.1636V64.9995" stroke="#3A643C" stroke-miterlimit="10" stroke-linecap="round" stroke-linejoin="round"/>
</g>
</g>
<path d="M18.096 117.112C17.8613 117.112 17.68 117.048 17.552 116.92C17.424 116.781 17.36 116.589 17.36 116.344V106.376C17.36 106.12 17.424 105.928 17.552 105.8C17.68 105.672 17.8613 105.608 18.096 105.608C18.3413 105.608 18.528 105.672 18.656 105.8C18.784 105.928 18.848 106.12 18.848 106.376V110.648H25.376V106.376C25.376 106.12 25.44 105.928 25.568 105.8C25.696 105.672 25.8827 105.608 26.128 105.608C26.3627 105.608 26.544 105.672 26.672 105.8C26.8 105.928 26.864 106.12 26.864 106.376V116.344C26.864 116.589 26.8 116.781 26.672 116.92C26.544 117.048 26.3627 117.112 26.128 117.112C25.8827 117.112 25.696 117.048 25.568 116.92C25.44 116.781 25.376 116.589 25.376 116.344V111.912H18.848V116.344C18.848 116.589 18.784 116.781 18.656 116.92C18.5387 117.048 18.352 117.112 18.096 117.112ZM31.8668 117.144C31.3334 117.144 30.8481 117.037 30.4108 116.824C29.9841 116.611 29.6481 116.323 29.4028 115.96C29.1681 115.597 29.0508 115.192 29.0508 114.744C29.0508 114.168 29.1948 113.715 29.4828 113.384C29.7708 113.053 30.2561 112.819 30.9388 112.68C31.6214 112.531 32.5388 112.456 33.6908 112.456H34.4428V113.384H33.7228C32.9014 113.384 32.2508 113.421 31.7708 113.496C31.3014 113.571 30.9708 113.704 30.7788 113.896C30.5868 114.077 30.4908 114.333 30.4908 114.664C30.4908 115.08 30.6348 115.421 30.9228 115.688C31.2214 115.955 31.6268 116.088 32.1388 116.088C32.5441 116.088 32.9014 115.992 33.2108 115.8C33.5201 115.597 33.7654 115.331 33.9468 115C34.1281 114.659 34.2188 114.269 34.2188 113.832V111.992C34.2188 111.363 34.0908 110.909 33.8348 110.632C33.5788 110.344 33.1468 110.2 32.5388 110.2C32.1868 110.2 31.8241 110.248 31.4508 110.344C31.0774 110.44 30.6881 110.589 30.2828 110.792C30.1228 110.867 29.9841 110.893 29.8668 110.872C29.7494 110.84 29.6534 110.776 29.5788 110.68C29.5148 110.573 29.4774 110.461 29.4668 110.344C29.4668 110.216 29.4934 110.093 29.5468 109.976C29.6108 109.859 29.7174 109.773 29.8668 109.72C30.3361 109.485 30.8001 109.32 31.2588 109.224C31.7281 109.117 32.1654 109.064 32.5708 109.064C33.2641 109.064 33.8348 109.176 34.2828 109.4C34.7308 109.613 35.0668 109.949 35.2908 110.408C35.5148 110.856 35.6268 111.432 35.6268 112.136V116.36C35.6268 116.605 35.5681 116.792 35.4508 116.92C35.3334 117.048 35.1628 117.112 34.9388 117.112C34.7254 117.112 34.5548 117.048 34.4268 116.92C34.3094 116.792 34.2508 116.605 34.2508 116.36V115.224H34.3948C34.3094 115.619 34.1494 115.96 33.9148 116.248C33.6801 116.536 33.3868 116.76 33.0348 116.92C32.6934 117.069 32.3041 117.144 31.8668 117.144ZM38.638 117.08C38.414 117.08 38.238 117.011 38.11 116.872C37.982 116.733 37.918 116.541 37.918 116.296V109.912C37.918 109.656 37.982 109.464 38.11 109.336C38.238 109.197 38.414 109.128 38.638 109.128C38.8727 109.128 39.054 109.197 39.182 109.336C39.31 109.464 39.374 109.656 39.374 109.912V116.296C39.374 116.541 39.31 116.733 39.182 116.872C39.0647 117.011 38.8833 117.08 38.638 117.08ZM38.638 107.4C38.35 107.4 38.1207 107.325 37.95 107.176C37.79 107.016 37.71 106.808 37.71 106.552C37.71 106.275 37.79 106.067 37.95 105.928C38.1207 105.779 38.35 105.704 38.638 105.704C38.9473 105.704 39.1767 105.779 39.326 105.928C39.486 106.067 39.566 106.275 39.566 106.552C39.566 106.808 39.486 107.016 39.326 107.176C39.1767 107.325 38.9473 107.4 38.638 107.4ZM42.4669 117.112C42.2215 117.112 42.0349 117.048 41.9069 116.92C41.7789 116.792 41.7149 116.605 41.7149 116.36V109.832C41.7149 109.587 41.7789 109.405 41.9069 109.288C42.0349 109.16 42.2109 109.096 42.4349 109.096C42.6589 109.096 42.8295 109.16 42.9469 109.288C43.0749 109.405 43.1389 109.587 43.1389 109.832V111.064H42.9789C43.1495 110.424 43.4695 109.939 43.9389 109.608C44.4082 109.277 45.0002 109.091 45.7149 109.048C45.8855 109.037 46.0242 109.08 46.1309 109.176C46.2375 109.261 46.2962 109.411 46.3069 109.624C46.3175 109.827 46.2695 109.992 46.1629 110.12C46.0562 110.237 45.8909 110.307 45.6669 110.328L45.3789 110.344C44.6749 110.419 44.1309 110.648 43.7469 111.032C43.3735 111.416 43.1869 111.944 43.1869 112.616V116.36C43.1869 116.605 43.1229 116.792 42.9949 116.92C42.8775 117.048 42.7015 117.112 42.4669 117.112ZM56.8825 117.144C55.7625 117.144 54.8025 116.909 54.0025 116.44C53.2025 115.971 52.5838 115.304 52.1465 114.44C51.7198 113.565 51.5065 112.536 51.5065 111.352C51.5065 110.467 51.6292 109.672 51.8745 108.968C52.1198 108.253 52.4718 107.645 52.9305 107.144C53.3892 106.632 53.9492 106.243 54.6105 105.976C55.2825 105.709 56.0398 105.576 56.8825 105.576C57.5225 105.576 58.1358 105.667 58.7225 105.848C59.3198 106.029 59.8318 106.285 60.2585 106.616C60.4292 106.733 60.5412 106.867 60.5945 107.016C60.6478 107.165 60.6532 107.309 60.6105 107.448C60.5785 107.576 60.5092 107.688 60.4025 107.784C60.3065 107.869 60.1838 107.917 60.0345 107.928C59.8852 107.928 59.7252 107.869 59.5545 107.752C59.1812 107.464 58.7705 107.256 58.3225 107.128C57.8852 106.989 57.4158 106.92 56.9145 106.92C56.0932 106.92 55.3945 107.096 54.8185 107.448C54.2532 107.789 53.8212 108.291 53.5225 108.952C53.2345 109.603 53.0905 110.403 53.0905 111.352C53.0905 112.291 53.2345 113.096 53.5225 113.768C53.8212 114.429 54.2532 114.936 54.8185 115.288C55.3945 115.629 56.0932 115.8 56.9145 115.8C57.4158 115.8 57.8905 115.731 58.3385 115.592C58.7972 115.453 59.2185 115.24 59.6025 114.952C59.7732 114.835 59.9278 114.781 60.0665 114.792C60.2158 114.803 60.3385 114.851 60.4345 114.936C60.5305 115.011 60.5945 115.117 60.6265 115.256C60.6692 115.384 60.6692 115.517 60.6265 115.656C60.5838 115.795 60.4878 115.917 60.3385 116.024C59.9012 116.397 59.3785 116.68 58.7705 116.872C58.1732 117.053 57.5438 117.144 56.8825 117.144ZM64.7418 117.144C64.2084 117.144 63.7231 117.037 63.2858 116.824C62.8591 116.611 62.5231 116.323 62.2778 115.96C62.0431 115.597 61.9258 115.192 61.9258 114.744C61.9258 114.168 62.0698 113.715 62.3578 113.384C62.6458 113.053 63.1311 112.819 63.8138 112.68C64.4964 112.531 65.4138 112.456 66.5658 112.456H67.3178V113.384H66.5978C65.7764 113.384 65.1258 113.421 64.6458 113.496C64.1764 113.571 63.8458 113.704 63.6538 113.896C63.4618 114.077 63.3658 114.333 63.3658 114.664C63.3658 115.08 63.5098 115.421 63.7978 115.688C64.0964 115.955 64.5018 116.088 65.0138 116.088C65.4191 116.088 65.7764 115.992 66.0858 115.8C66.3951 115.597 66.6404 115.331 66.8218 115C67.0031 114.659 67.0938 114.269 67.0938 113.832V111.992C67.0938 111.363 66.9658 110.909 66.7098 110.632C66.4538 110.344 66.0218 110.2 65.4138 110.2C65.0618 110.2 64.6991 110.248 64.3258 110.344C63.9524 110.44 63.5631 110.589 63.1578 110.792C62.9978 110.867 62.8591 110.893 62.7418 110.872C62.6244 110.84 62.5284 110.776 62.4538 110.68C62.3898 110.573 62.3524 110.461 62.3418 110.344C62.3418 110.216 62.3684 110.093 62.4218 109.976C62.4858 109.859 62.5924 109.773 62.7418 109.72C63.2111 109.485 63.6751 109.32 64.1338 109.224C64.6031 109.117 65.0404 109.064 65.4458 109.064C66.1391 109.064 66.7098 109.176 67.1578 109.4C67.6058 109.613 67.9418 109.949 68.1658 110.408C68.3898 110.856 68.5018 111.432 68.5018 112.136V116.36C68.5018 116.605 68.4431 116.792 68.3258 116.92C68.2084 117.048 68.0378 117.112 67.8138 117.112C67.6004 117.112 67.4298 117.048 67.3018 116.92C67.1844 116.792 67.1258 116.605 67.1258 116.36V115.224H67.2698C67.1844 115.619 67.0244 115.96 66.7898 116.248C66.5551 116.536 66.2618 116.76 65.9098 116.92C65.5684 117.069 65.1791 117.144 64.7418 117.144ZM71.545 117.112C71.2997 117.112 71.113 117.048 70.985 116.92C70.857 116.792 70.793 116.605 70.793 116.36V109.832C70.793 109.587 70.857 109.405 70.985 109.288C71.113 109.16 71.289 109.096 71.513 109.096C71.737 109.096 71.9077 109.16 72.025 109.288C72.153 109.405 72.217 109.587 72.217 109.832V111.064H72.057C72.2277 110.424 72.5477 109.939 73.017 109.608C73.4863 109.277 74.0783 109.091 74.793 109.048C74.9637 109.037 75.1023 109.08 75.209 109.176C75.3157 109.261 75.3743 109.411 75.385 109.624C75.3957 109.827 75.3477 109.992 75.241 110.12C75.1343 110.237 74.969 110.307 74.745 110.328L74.457 110.344C73.753 110.419 73.209 110.648 72.825 111.032C72.4517 111.416 72.265 111.944 72.265 112.616V116.36C72.265 116.605 72.201 116.792 72.073 116.92C71.9557 117.048 71.7797 117.112 71.545 117.112ZM80.1274 117.144C79.2847 117.144 78.5594 116.984 77.9514 116.664C77.354 116.333 76.89 115.869 76.5594 115.272C76.2287 114.664 76.0634 113.949 76.0634 113.128C76.0634 112.317 76.2234 111.608 76.5434 111C76.874 110.392 77.322 109.917 77.8874 109.576C78.4634 109.235 79.1194 109.064 79.8554 109.064C80.378 109.064 80.8474 109.155 81.2634 109.336C81.69 109.507 82.0527 109.757 82.3514 110.088C82.65 110.419 82.874 110.824 83.0234 111.304C83.1834 111.773 83.2634 112.307 83.2634 112.904C83.2634 113.075 83.21 113.208 83.1034 113.304C83.0074 113.389 82.8634 113.432 82.6714 113.432H77.1994V112.504H82.3034L82.0314 112.728C82.0314 112.173 81.946 111.704 81.7754 111.32C81.6154 110.925 81.3754 110.627 81.0554 110.424C80.746 110.221 80.3567 110.12 79.8874 110.12C79.3754 110.12 78.938 110.243 78.5754 110.488C78.2127 110.723 77.9354 111.059 77.7434 111.496C77.5514 111.923 77.4554 112.419 77.4554 112.984V113.08C77.4554 114.04 77.6847 114.765 78.1434 115.256C78.602 115.747 79.2634 115.992 80.1274 115.992C80.4687 115.992 80.8154 115.949 81.1674 115.864C81.53 115.779 81.8767 115.624 82.2074 115.4C82.3674 115.304 82.5114 115.261 82.6394 115.272C82.778 115.272 82.89 115.315 82.9754 115.4C83.0607 115.475 83.114 115.571 83.1354 115.688C83.1567 115.795 83.1407 115.912 83.0874 116.04C83.034 116.168 82.9327 116.28 82.7834 116.376C82.4314 116.621 82.01 116.813 81.5194 116.952C81.0394 117.08 80.5754 117.144 80.1274 117.144Z" fill="black"/>
<defs>
<clipPath id="clip0_574_1439">
<rect width="84" height="78" fill="white" transform="translate(8 8)"/>
</clipPath>
</defs>
</svg>
