<svg width="48" height="48" viewBox="0 0 48 48" fill="none" xmlns="http://www.w3.org/2000/svg">
<rect width="48" height="48" rx="6" fill="#F7F7FC"/>
<path d="M35 17V31C35 31.55 34.8043 32.021 34.413 32.413C34.0217 32.805 33.5507 33.0007 33 33H30C29.7167 33 29.4793 32.904 29.288 32.712C29.0967 32.52 29.0007 32.2827 29 32C29 31.7167 29.096 31.4793 29.288 31.288C29.48 31.0967 29.7173 31.0007 30 31H33V17H24V17.5C24 17.7833 23.904 18.021 23.712 18.213C23.52 18.405 23.2827 18.5007 23 18.5C22.7167 18.5 22.4793 18.404 22.288 18.212C22.0967 18.02 22.0007 17.7827 22 17.5V16.95C22 16.4167 22.1917 15.9583 22.575 15.575C22.9583 15.1917 23.4167 15 23.95 15H33C33.55 15 34.021 15.196 34.413 15.588C34.805 15.98 35.0007 16.4507 35 17ZM13 24.025C13 23.6917 13.075 23.3833 13.225 23.1C13.375 22.8167 13.5833 22.5833 13.85 22.4L18.85 18.825C19.0333 18.6917 19.221 18.5957 19.413 18.537C19.605 18.4783 19.8007 18.4493 20 18.45C20.2 18.45 20.396 18.4793 20.588 18.538C20.78 18.5967 20.9673 18.6923 21.15 18.825L26.15 22.4C26.4167 22.5833 26.625 22.8167 26.775 23.1C26.925 23.3833 27 23.6917 27 24.025V31C27 31.55 26.8043 32.021 26.413 32.413C26.0217 32.805 25.5507 33.0007 25 33H23C22.45 33 21.9793 32.8043 21.588 32.413C21.1967 32.0217 21.0007 31.5507 21 31V28H19V31C19 31.55 18.8043 32.021 18.413 32.413C18.0217 32.805 17.5507 33.0007 17 33H15C14.45 33 13.9793 32.8043 13.588 32.413C13.1967 32.0217 13.0007 31.5507 13 31V24.025ZM15 24V31H17V28C17 27.45 17.196 26.9793 17.588 26.588C17.98 26.1967 18.4507 26.0007 19 26H21C21.55 26 22.021 26.196 22.413 26.588C22.805 26.98 23.0007 27.4507 23 28V31H25V24L20 20.45L15 24ZM29.5 21H30.5C30.6333 21 30.75 20.95 30.85 20.85C30.95 20.75 31 20.6333 31 20.5V19.5C31 19.3667 30.95 19.25 30.85 19.15C30.75 19.05 30.6333 19 30.5 19H29.5C29.3667 19 29.25 19.05 29.15 19.15C29.05 19.25 29 19.3667 29 19.5V20.5C29 20.6333 29.05 20.75 29.15 20.85C29.25 20.95 29.3667 21 29.5 21ZM29.5 25H30.5C30.6333 25 30.75 24.95 30.85 24.85C30.95 24.75 31 24.6333 31 24.5V23.5C31 23.3667 30.95 23.25 30.85 23.15C30.75 23.05 30.6333 23 30.5 23H29.5C29.3667 23 29.25 23.05 29.15 23.15C29.05 23.25 29 23.3667 29 23.5V24.5C29 24.6333 29.05 24.75 29.15 24.85C29.25 24.95 29.3667 25 29.5 25ZM29.5 29H30.5C30.6333 29 30.75 28.95 30.85 28.85C30.95 28.75 31 28.6333 31 28.5V27.5C31 27.3667 30.95 27.25 30.85 27.15C30.75 27.05 30.6333 27 30.5 27H29.5C29.3667 27 29.25 27.05 29.15 27.15C29.05 27.25 29 27.3667 29 27.5V28.5C29 28.6333 29.05 28.75 29.15 28.85C29.25 28.95 29.3667 29 29.5 29Z" fill="#2E37A4"/>
</svg>
