<svg width="92" height="122" viewBox="0 0 92 122" fill="none" xmlns="http://www.w3.org/2000/svg">
<rect x="0.5" y="0.5" width="91" height="95" rx="8.5" fill="#FFFCF2"/>
<rect x="0.5" y="0.5" width="91" height="95" rx="8.5" stroke="#EAEAEA"/>
<path d="M48.7857 9H43.2143C23.2137 9 7 26.4609 7 48C7 69.5391 23.2137 87 43.2143 87H48.7857C68.7863 87 85 69.5391 85 48C85 26.4609 68.7863 9 48.7857 9Z" fill="white"/>
<path d="M46.5 80C64.4493 80 79 65.6731 79 48C79 30.3269 64.4493 16 46.5 16C28.5507 16 14 30.3269 14 48C14 65.6731 28.5507 80 46.5 80Z" fill="#E0E8E2"/>
<path d="M62.8156 39.095C62.8143 38.7247 62.6032 38.3666 62.273 38.1746L54.8719 33.9877C54.5695 33.8166 54.2009 33.8168 53.8914 33.9747C48.9365 36.5012 42.8617 36.5002 37.9077 33.9715C37.6017 33.8153 37.2376 33.8131 36.9367 33.9791L29.5115 38.0745C29.1813 38.2665 28.9702 38.6247 28.9689 38.995C28.9287 50.1033 36.1184 61.5201 45.8924 66.1482C46.2857 66.3659 46.1458 66.3659 46.5391 66.1482C56.4972 60.6304 62.8187 50.1682 62.8156 39.095Z" fill="#FDF8E5" stroke="#3A643C" stroke-miterlimit="10"/>
<path opacity="0.5" d="M43.4098 42.4192C43.2772 42.7276 43.2772 43.1185 43.2772 43.9004V45.4979C43.2772 45.5358 43.2772 45.5548 43.265 45.5666C43.2527 45.5784 43.233 45.5784 43.1936 45.5784H41.5351C40.7234 45.5784 40.3175 45.5784 39.9974 45.7061C39.5705 45.8765 39.2314 46.2031 39.0546 46.6143C38.9219 46.9227 38.9219 47.3136 38.9219 48.0955C38.9219 48.8773 38.9219 49.2683 39.0546 49.5767C39.2314 49.9878 39.5705 50.3145 39.9974 50.4848C40.3175 50.6125 40.7234 50.6125 41.5351 50.6125H43.1936C43.233 50.6125 43.2527 50.6125 43.265 50.6243C43.2772 50.6361 43.2772 50.6551 43.2772 50.6931V52.2906C43.2772 53.0724 43.2772 53.4634 43.4098 53.7718C43.5867 54.1829 43.9258 54.5096 44.3527 54.6799C44.6728 54.8076 45.0787 54.8076 45.8904 54.8076C46.7021 54.8076 47.108 54.8076 47.4281 54.6799C47.855 54.5096 48.1942 54.1829 48.371 53.7718C48.5036 53.4634 48.5036 53.0724 48.5036 52.2906V50.6931C48.5036 50.6551 48.5036 50.6361 48.5158 50.6243C48.5281 50.6125 48.5478 50.6125 48.5872 50.6125H50.2457C51.0574 50.6125 51.4633 50.6125 51.7834 50.4848C52.2103 50.3145 52.5495 49.9878 52.7263 49.5767C52.8589 49.2683 52.8589 48.8773 52.8589 48.0955C52.8589 47.3136 52.8589 46.9227 52.7263 46.6143C52.5495 46.2031 52.2103 45.8765 51.7834 45.7061C51.4633 45.5784 51.0574 45.5784 50.2457 45.5784H48.5872C48.5478 45.5784 48.5281 45.5784 48.5158 45.5666C48.5036 45.5548 48.5036 45.5358 48.5036 45.4979V43.9004C48.5036 43.1185 48.5036 42.7276 48.371 42.4192C48.1942 42.008 47.855 41.6813 47.4281 41.511C47.108 41.3833 46.7021 41.3833 45.8904 41.3833C45.0787 41.3833 44.6728 41.3833 44.3527 41.511C43.9258 41.6813 43.5867 42.008 43.4098 42.4192Z" fill="#E0E8E2" stroke="#3A643C"/>
<path opacity="0.5" d="M38.25 63.7708C39.9759 63.7708 41.375 62.6049 41.375 61.1667C41.375 59.7284 39.9759 58.5625 38.25 58.5625C36.5241 58.5625 35.125 59.7284 35.125 61.1667C35.125 62.6049 36.5241 63.7708 38.25 63.7708Z" stroke="#3A643C"/>
<path d="M38.25 58.25V58.4583" stroke="#3A643C" stroke-linecap="round"/>
<path d="M38.25 63.458V64.2913" stroke="#3A643C" stroke-linecap="round"/>
<path d="M35.6172 59.6112C35.8293 59.788 36.1733 59.788 36.3854 59.6112C36.5975 59.4345 36.5975 59.1478 36.3854 58.971L35.6172 59.6112ZM35.3672 59.4029L35.6172 59.6112L36.3854 58.971L36.1354 58.7627L35.3672 59.4029Z" fill="#3A643C"/>
<path d="M39.7411 59.2835C39.529 59.4603 39.529 59.747 39.7411 59.9237C39.9532 60.1005 40.2972 60.1005 40.5093 59.9237L39.7411 59.2835ZM40.3661 58.7627L39.7411 59.2835L40.5093 59.9237L41.1343 59.4029L40.3661 58.7627Z" fill="#3A643C"/>
<path d="M40.8843 62.7215C40.6722 62.5447 40.3282 62.5447 40.1161 62.7215C39.904 62.8983 39.904 63.1849 40.1161 63.3617L40.8843 62.7215ZM41.1343 62.9298L40.8843 62.7215L40.1161 63.3617L40.3661 63.57L41.1343 62.9298Z" fill="#3A643C"/>
<path d="M34.5 61.1665H35" stroke="#3A643C" stroke-linecap="round"/>
<path d="M41 61.1665H42" stroke="#3A643C" stroke-linecap="round"/>
<path d="M36.7604 63.0492C36.9725 62.8724 36.9725 62.5858 36.7604 62.409C36.5483 62.2322 36.2043 62.2322 35.9922 62.409L36.7604 63.0492ZM36.1354 63.57L36.7604 63.0492L35.9922 62.409L35.3672 62.9298L36.1354 63.57Z" fill="#3A643C"/>
<path d="M38.5 59.9167C38.5 60.1468 38.2761 60.3333 38 60.3333C37.7239 60.3333 37.5 60.1468 37.5 59.9167C37.5 59.6865 37.7239 59.5 38 59.5C38.2761 59.5 38.5 59.6865 38.5 59.9167Z" stroke="#3A643C"/>
<path d="M37.5 61.5832C37.5 61.8133 37.2761 61.9998 37 61.9998C36.7239 61.9998 36.5 61.8133 36.5 61.5832C36.5 61.3531 36.7239 61.1665 37 61.1665C37.2761 61.1665 37.5 61.3531 37.5 61.5832Z" stroke="#3A643C"/>
<path d="M40.25 61.9997C40.25 62.2298 40.0261 62.4163 39.75 62.4163C39.4739 62.4163 39.25 62.2298 39.25 61.9997C39.25 61.7696 39.4739 61.583 39.75 61.583C40.0261 61.583 40.25 61.7696 40.25 61.9997Z" stroke="#3A643C"/>
<path d="M38.25 57.2082C38.5261 57.2082 38.75 57.3947 38.75 57.6248C38.75 57.855 38.5261 58.0415 38.25 58.0415C37.9739 58.0415 37.75 57.855 37.75 57.6248C37.75 57.3947 37.9739 57.2082 38.25 57.2082Z" stroke="#3A643C"/>
<path d="M38.75 64.7081C38.75 64.478 38.5261 64.2915 38.25 64.2915C37.9739 64.2915 37.75 64.478 37.75 64.7081C37.75 64.9383 37.9739 65.1248 38.25 65.1248C38.5261 65.1248 38.75 64.9383 38.75 64.7081Z" stroke="#3A643C"/>
<path d="M35.25 58.2497C35.5261 58.2497 35.75 58.4362 35.75 58.6663C35.75 58.8965 35.5261 59.083 35.25 59.083C34.9739 59.083 34.75 58.8965 34.75 58.6663C34.75 58.4362 34.9739 58.2497 35.25 58.2497Z" stroke="#3A643C"/>
<path d="M41.25 58.2497C41.5261 58.2497 41.75 58.4362 41.75 58.6663C41.75 58.8965 41.5261 59.083 41.25 59.083C40.9739 59.083 40.75 58.8965 40.75 58.6663C40.75 58.4362 40.9739 58.2497 41.25 58.2497Z" stroke="#3A643C"/>
<path d="M41.25 63.2497C41.5261 63.2497 41.75 63.4362 41.75 63.6663C41.75 63.8965 41.5261 64.083 41.25 64.083C40.9739 64.083 40.75 63.8965 40.75 63.6663C40.75 63.4362 40.9739 63.2497 41.25 63.2497Z" stroke="#3A643C"/>
<path d="M34.5 61.1661C34.5 60.936 34.2761 60.7495 34 60.7495C33.7239 60.7495 33.5 60.936 33.5 61.1661C33.5 61.3963 33.7239 61.5828 34 61.5828C34.2761 61.5828 34.5 61.3963 34.5 61.1661Z" stroke="#3A643C"/>
<path d="M43 61.1661C43 60.936 42.7761 60.7495 42.5 60.7495C42.2239 60.7495 42 60.936 42 61.1661C42 61.3963 42.2239 61.5828 42.5 61.5828C42.7761 61.5828 43 61.3963 43 61.1661Z" stroke="#3A643C"/>
<path d="M35.25 63.2497C35.5261 63.2497 35.75 63.4362 35.75 63.6663C35.75 63.8965 35.5261 64.083 35.25 64.083C34.9739 64.083 34.75 63.8965 34.75 63.6663C34.75 63.4362 34.9739 63.2497 35.25 63.2497Z" stroke="#3A643C"/>
<path d="M14.096 117.112C13.8613 117.112 13.68 117.048 13.552 116.92C13.424 116.781 13.36 116.589 13.36 116.344V106.376C13.36 106.12 13.424 105.928 13.552 105.8C13.68 105.672 13.8613 105.608 14.096 105.608C14.3413 105.608 14.528 105.672 14.656 105.8C14.784 105.928 14.848 106.12 14.848 106.376V116.344C14.848 116.589 14.784 116.781 14.656 116.92C14.5387 117.048 14.352 117.112 14.096 117.112ZM18.1075 117.112C17.8835 117.112 17.7075 117.048 17.5795 116.92C17.4515 116.792 17.3875 116.605 17.3875 116.36V109.832C17.3875 109.587 17.4515 109.405 17.5795 109.288C17.7075 109.16 17.8835 109.096 18.1075 109.096C18.3315 109.096 18.5022 109.16 18.6195 109.288C18.7475 109.405 18.8115 109.587 18.8115 109.832V111.192L18.6355 110.904C18.8382 110.317 19.1635 109.864 19.6115 109.544C20.0702 109.224 20.6142 109.064 21.2435 109.064C21.9048 109.064 22.4382 109.224 22.8435 109.544C23.2488 109.853 23.5208 110.328 23.6595 110.968H23.4355C23.6275 110.381 23.9688 109.917 24.4595 109.576C24.9608 109.235 25.5422 109.064 26.2035 109.064C26.7902 109.064 27.2702 109.181 27.6435 109.416C28.0275 109.64 28.3155 109.981 28.5075 110.44C28.6995 110.888 28.7955 111.464 28.7955 112.168V116.36C28.7955 116.605 28.7315 116.792 28.6035 116.92C28.4755 117.048 28.2995 117.112 28.0755 117.112C27.8408 117.112 27.6595 117.048 27.5315 116.92C27.4035 116.792 27.3395 116.605 27.3395 116.36V112.232C27.3395 111.549 27.2222 111.048 26.9875 110.728C26.7528 110.408 26.3582 110.248 25.8035 110.248C25.1955 110.248 24.7102 110.461 24.3475 110.888C23.9955 111.304 23.8195 111.88 23.8195 112.616V116.36C23.8195 116.605 23.7555 116.792 23.6275 116.92C23.5102 117.048 23.3342 117.112 23.0995 117.112C22.8648 117.112 22.6835 117.048 22.5555 116.92C22.4275 116.792 22.3635 116.605 22.3635 116.36V112.232C22.3635 111.549 22.2462 111.048 22.0115 110.728C21.7768 110.408 21.3822 110.248 20.8275 110.248C20.2195 110.248 19.7342 110.461 19.3715 110.888C19.0195 111.304 18.8435 111.88 18.8435 112.616V116.36C18.8435 116.861 18.5982 117.112 18.1075 117.112ZM31.8888 117.112C31.6648 117.112 31.4888 117.048 31.3608 116.92C31.2328 116.792 31.1688 116.605 31.1688 116.36V109.832C31.1688 109.587 31.2328 109.405 31.3608 109.288C31.4888 109.16 31.6648 109.096 31.8888 109.096C32.1128 109.096 32.2834 109.16 32.4008 109.288C32.5288 109.405 32.5928 109.587 32.5928 109.832V111.192L32.4168 110.904C32.6194 110.317 32.9448 109.864 33.3928 109.544C33.8514 109.224 34.3954 109.064 35.0248 109.064C35.6861 109.064 36.2194 109.224 36.6248 109.544C37.0301 109.853 37.3021 110.328 37.4408 110.968H37.2168C37.4088 110.381 37.7501 109.917 38.2408 109.576C38.7421 109.235 39.3234 109.064 39.9848 109.064C40.5714 109.064 41.0514 109.181 41.4248 109.416C41.8088 109.64 42.0968 109.981 42.2888 110.44C42.4808 110.888 42.5768 111.464 42.5768 112.168V116.36C42.5768 116.605 42.5128 116.792 42.3848 116.92C42.2568 117.048 42.0808 117.112 41.8568 117.112C41.6221 117.112 41.4408 117.048 41.3128 116.92C41.1848 116.792 41.1208 116.605 41.1208 116.36V112.232C41.1208 111.549 41.0034 111.048 40.7688 110.728C40.5341 110.408 40.1394 110.248 39.5848 110.248C38.9768 110.248 38.4914 110.461 38.1288 110.888C37.7768 111.304 37.6008 111.88 37.6008 112.616V116.36C37.6008 116.605 37.5368 116.792 37.4088 116.92C37.2914 117.048 37.1154 117.112 36.8808 117.112C36.6461 117.112 36.4648 117.048 36.3368 116.92C36.2088 116.792 36.1448 116.605 36.1448 116.36V112.232C36.1448 111.549 36.0274 111.048 35.7928 110.728C35.5581 110.408 35.1634 110.248 34.6088 110.248C34.0008 110.248 33.5154 110.461 33.1528 110.888C32.8008 111.304 32.6248 111.88 32.6248 112.616V116.36C32.6248 116.861 32.3794 117.112 31.8888 117.112ZM47.702 117.144C47.0727 117.144 46.5447 117.027 46.118 116.792C45.702 116.557 45.3927 116.211 45.19 115.752C44.9873 115.293 44.886 114.717 44.886 114.024V109.832C44.886 109.587 44.9447 109.405 45.062 109.288C45.19 109.16 45.3713 109.096 45.606 109.096C45.8407 109.096 46.022 109.16 46.15 109.288C46.278 109.405 46.342 109.587 46.342 109.832V114.024C46.342 114.685 46.4753 115.176 46.742 115.496C47.0087 115.805 47.43 115.96 48.006 115.96C48.646 115.96 49.1633 115.747 49.558 115.32C49.9633 114.893 50.166 114.328 50.166 113.624V109.832C50.166 109.587 50.2247 109.405 50.342 109.288C50.47 109.16 50.6513 109.096 50.886 109.096C51.1207 109.096 51.302 109.16 51.43 109.288C51.558 109.405 51.622 109.587 51.622 109.832V116.36C51.622 116.861 51.3873 117.112 50.918 117.112C50.6833 117.112 50.502 117.048 50.374 116.92C50.2567 116.792 50.198 116.605 50.198 116.36V114.968L50.406 115.24C50.1927 115.859 49.846 116.333 49.366 116.664C48.8967 116.984 48.342 117.144 47.702 117.144ZM54.6849 117.112C54.4609 117.112 54.2849 117.048 54.1569 116.92C54.0289 116.792 53.9649 116.605 53.9649 116.36V109.832C53.9649 109.587 54.0289 109.405 54.1569 109.288C54.2849 109.16 54.4609 109.096 54.6849 109.096C54.9089 109.096 55.0795 109.16 55.1969 109.288C55.3249 109.405 55.3889 109.587 55.3889 109.832V111.144L55.2129 110.904C55.4369 110.296 55.7995 109.837 56.3009 109.528C56.8129 109.219 57.3942 109.064 58.0449 109.064C58.6742 109.064 59.1915 109.176 59.5969 109.4C60.0022 109.624 60.3062 109.965 60.5089 110.424C60.7115 110.883 60.8129 111.464 60.8129 112.168V116.36C60.8129 116.605 60.7489 116.792 60.6209 116.92C60.5035 117.048 60.3275 117.112 60.0929 117.112C59.8582 117.112 59.6769 117.048 59.5489 116.92C59.4209 116.792 59.3569 116.605 59.3569 116.36V112.248C59.3569 111.555 59.2235 111.048 58.9569 110.728C58.6902 110.408 58.2635 110.248 57.6769 110.248C56.9942 110.248 56.4449 110.461 56.0289 110.888C55.6235 111.304 55.4209 111.869 55.4209 112.584V116.36C55.4209 116.861 55.1755 117.112 54.6849 117.112ZM63.8411 117.08C63.6171 117.08 63.4411 117.011 63.3131 116.872C63.1851 116.733 63.1211 116.541 63.1211 116.296V109.912C63.1211 109.656 63.1851 109.464 63.3131 109.336C63.4411 109.197 63.6171 109.128 63.8411 109.128C64.0758 109.128 64.2571 109.197 64.3851 109.336C64.5131 109.464 64.5771 109.656 64.5771 109.912V116.296C64.5771 116.541 64.5131 116.733 64.3851 116.872C64.2678 117.011 64.0865 117.08 63.8411 117.08ZM63.8411 107.4C63.5531 107.4 63.3238 107.325 63.1531 107.176C62.9931 107.016 62.9131 106.808 62.9131 106.552C62.9131 106.275 62.9931 106.067 63.1531 105.928C63.3238 105.779 63.5531 105.704 63.8411 105.704C64.1505 105.704 64.3798 105.779 64.5291 105.928C64.6891 106.067 64.7691 106.275 64.7691 106.552C64.7691 106.808 64.6891 107.016 64.5291 107.176C64.3798 107.325 64.1505 107.4 63.8411 107.4ZM70.15 117.144C69.5207 117.144 68.9927 117.032 68.566 116.808C68.15 116.584 67.8353 116.259 67.622 115.832C67.4193 115.405 67.318 114.883 67.318 114.264V110.328H66.294C66.102 110.328 65.9527 110.28 65.846 110.184C65.7393 110.077 65.686 109.939 65.686 109.768C65.686 109.587 65.7393 109.448 65.846 109.352C65.9527 109.256 66.102 109.208 66.294 109.208H67.318V107.464C67.318 107.219 67.382 107.037 67.51 106.92C67.638 106.792 67.8193 106.728 68.054 106.728C68.2887 106.728 68.4647 106.792 68.582 106.92C68.71 107.037 68.774 107.219 68.774 107.464V109.208H70.71C70.9127 109.208 71.0673 109.256 71.174 109.352C71.2807 109.448 71.334 109.587 71.334 109.768C71.334 109.939 71.2807 110.077 71.174 110.184C71.0673 110.28 70.9127 110.328 70.71 110.328H68.774V114.136C68.774 114.723 68.8967 115.165 69.142 115.464C69.3873 115.763 69.7927 115.912 70.358 115.912C70.5607 115.912 70.7313 115.896 70.87 115.864C71.0087 115.821 71.1313 115.8 71.238 115.8C71.334 115.789 71.414 115.821 71.478 115.896C71.5527 115.971 71.59 116.109 71.59 116.312C71.59 116.461 71.5633 116.6 71.51 116.728C71.4673 116.845 71.3767 116.925 71.238 116.968C71.11 117.011 70.9393 117.048 70.726 117.08C70.5127 117.123 70.3207 117.144 70.15 117.144ZM74.5538 119.992C74.3831 119.992 74.2391 119.944 74.1218 119.848C74.0151 119.763 73.9511 119.64 73.9298 119.48C73.9191 119.331 73.9511 119.171 74.0258 119L75.1138 116.536V117.144L72.0898 110.104C72.0151 109.923 71.9884 109.757 72.0098 109.608C72.0311 109.459 72.1004 109.336 72.2178 109.24C72.3458 109.144 72.5164 109.096 72.7298 109.096C72.9111 109.096 73.0551 109.139 73.1618 109.224C73.2684 109.309 73.3698 109.459 73.4658 109.672L75.9778 115.864H75.5298L78.0898 109.672C78.1751 109.459 78.2764 109.309 78.3938 109.224C78.5111 109.139 78.6711 109.096 78.8738 109.096C79.0551 109.096 79.1938 109.144 79.2898 109.24C79.3964 109.336 79.4604 109.459 79.4818 109.608C79.5031 109.757 79.4711 109.917 79.3858 110.088L75.3538 119.416C75.2471 119.64 75.1351 119.789 75.0178 119.864C74.9111 119.949 74.7564 119.992 74.5538 119.992Z" fill="black"/>
</svg>
