<svg width="100" height="122" viewBox="0 0 100 122" fill="none" xmlns="http://www.w3.org/2000/svg">
<rect x="0.5" y="0.5" width="99" height="95" rx="8.5" fill="#FFFCF2"/>
<rect x="0.5" y="0.5" width="99" height="95" rx="8.5" stroke="#EAEAEA"/>
<path d="M52.7857 9H47.2143C27.2137 9 11 26.4609 11 48C11 69.5391 27.2137 87 47.2143 87H52.7857C72.7863 87 89 69.5391 89 48C89 26.4609 72.7863 9 52.7857 9Z" fill="white"/>
<path d="M49.5 80C67.4493 80 82 65.6731 82 48C82 30.3269 67.4493 16 49.5 16C31.5507 16 17 30.3269 17 48C17 65.6731 31.5507 80 49.5 80Z" fill="#E0E8E2"/>
<path d="M62.6419 41.262C62.1108 51.3916 56.1662 39.4546 48.8331 39.4546C46.993 40.1937 36.1241 51.9205 35.3086 41.26C35.3086 34.7823 41.5 29 48.8331 29C56.1662 29 62.6419 34.7843 62.6419 41.262Z" fill="#FDF8E5"/>
<path d="M60.4383 67.3276C58.135 66.8986 56.4608 65.7559 55.4534 63.9366C54.0014 61.3089 54.4413 58.2273 54.6352 57.7777C56.3662 56.6226 57.6526 55.1128 58.608 53.079C60.0126 53.0501 61.4031 52.1055 62.3443 50.542C63.1294 49.2343 63.5456 47.4316 62.699 46.3631C62.5287 46.1445 62.2686 45.9176 61.8808 45.7567C62.9024 44.0654 63.1105 42.6463 63.1105 40.8229C63.1105 34.3051 56.9432 29 49.3665 29C46.2782 29 43.4216 29.8828 41.123 31.3679C41.1136 31.372 41.1041 31.3761 41.0947 31.3803C41.0663 31.3968 41.0426 31.4174 41.019 31.438C37.7367 33.5996 35.6179 37.003 35.6179 40.8229C35.6179 42.8154 35.6652 43.9045 36.682 45.5175C36.2044 45.6783 35.8969 45.9382 35.703 46.1857C34.8565 47.2583 35.2679 49.0569 36.0577 50.3646C37.0131 51.9569 38.4367 52.9058 39.865 52.9058C39.9312 52.9058 39.9927 52.8893 40.0447 52.8645C41.071 55.0179 42.4331 56.6721 44.0979 57.7777C44.2871 58.2232 44.7316 61.3047 43.2797 63.9366C42.2723 65.7559 40.5933 66.8986 38.2948 67.3317C38.0867 67.3688 37.9543 67.5503 37.9968 67.7319C38.0347 67.8886 38.1955 68 38.3752 68C38.4036 68 38.4272 67.9959 38.4556 67.9917C42.6223 67.2121 44.1783 64.4523 44.7506 62.2742C45.1147 60.8963 45.1478 59.3618 45.0107 58.3593C46.3066 59.073 47.82 59.4566 49.3665 59.4566C50.9131 59.4566 52.4313 59.0689 53.7224 58.3593C53.5805 59.3659 53.6184 60.8963 53.9825 62.2742C54.5548 64.4523 56.1108 67.2121 60.2775 67.9917C60.3059 67.9959 60.3342 68 60.3579 68C60.5376 68 60.6984 67.8927 60.7362 67.7319C60.7788 67.5421 60.6464 67.3647 60.4383 67.3276ZM62.3348 40.8188C62.3348 42.8649 62.0132 44.1314 61.1146 45.5628C60.9538 45.5463 60.7835 45.5381 60.5944 45.5422C61.4457 36.3305 54.6683 34.0905 54.5974 34.0699C54.394 34.008 54.1764 34.0988 54.1008 34.2721C54.0298 34.4453 54.1339 34.6392 54.3325 34.7052C54.3893 34.7217 59.0194 36.2604 59.7809 42.2626C57.0898 36.4626 48.8132 36.5121 48.7139 36.5203C48.501 36.5244 48.3308 36.6771 48.3355 36.8627C48.3402 37.0483 48.5105 37.1927 48.7233 37.1927C48.7281 37.1927 48.7281 37.1927 48.7281 37.1927C49.1206 37.1845 57.8181 37.1391 59.5397 43.8797C58.6978 42.9598 57.4682 42.1389 55.827 41.3963C54.8906 40.9714 53.9021 40.6167 52.9468 40.2743C51.9347 39.9113 50.8894 39.5359 49.9152 39.0821C46.2451 37.3577 43.8992 34.5361 41.8325 31.7515C43.956 30.4438 46.5572 29.6724 49.3618 29.6724C56.5175 29.6724 62.3348 34.6722 62.3348 40.8188ZM36.3935 40.8188C36.3935 37.3247 38.2759 34.2019 41.2129 32.1558C43.1709 34.796 45.3938 37.4691 48.7659 39.2677C48.0139 40.1216 44.5708 43.7147 38.9238 45.1874C39.2218 42.5638 41.998 39.9608 42.0264 39.936C42.173 39.7999 42.1635 39.5854 42.0122 39.4575C41.8561 39.3296 41.6102 39.3378 41.4683 39.4699C41.3359 39.5936 38.3043 42.4276 38.134 45.3772C38.1293 45.3772 38.1245 45.3772 38.1198 45.3813C37.8881 45.3607 37.6752 45.3566 37.4813 45.3648C36.4408 43.7972 36.3935 42.8195 36.3935 40.8188ZM44.6276 57.2785C42.8635 56.1193 41.4541 54.3042 40.4467 51.9033L39.794 49.9768C39.7326 49.7994 39.5197 49.6963 39.3116 49.7499C39.1083 49.8036 38.99 49.9892 39.0515 50.1707L39.7136 52.1178C39.7278 52.155 39.7468 52.188 39.7609 52.2251C38.4698 52.1673 37.3631 51.0741 36.7483 50.0511C35.9442 48.7145 35.7787 47.2831 36.3462 46.5694C36.682 46.1445 37.2732 45.9754 38.1056 46.0661C38.1151 46.0661 38.1293 46.0661 38.1387 46.0661C38.1435 46.0661 38.1482 46.0661 38.1529 46.0661C38.1576 46.0661 38.1624 46.0661 38.1671 46.0661C38.1907 46.0661 38.2144 46.062 38.238 46.0579C38.2428 46.0579 38.2428 46.0579 38.2475 46.0579H38.2522C38.257 46.0579 38.2617 46.0579 38.2664 46.0537C38.3563 46.0331 38.4461 46.0125 38.5313 45.9919C38.5833 45.9877 38.6353 45.9754 38.6826 45.9589C45.0532 44.4614 48.747 40.4352 49.4422 39.6184C49.4848 39.639 49.5273 39.6637 49.5699 39.6844C50.5773 40.1546 51.6414 40.5383 52.6677 40.9054C53.6042 41.2437 54.5784 41.5902 55.4865 42.0027C57.8134 43.0506 59.237 44.251 59.8471 45.666C59.8471 45.6701 59.8518 45.6701 59.8518 45.6742C59.8566 45.6825 59.8613 45.6948 59.866 45.7031C59.8708 45.7113 59.8755 45.7196 59.8849 45.7278C59.8897 45.7361 59.8991 45.7443 59.9039 45.7526C59.9039 45.7526 59.9039 45.7567 59.9086 45.7567C59.8755 45.8145 59.8566 45.8846 59.866 45.9547C59.8897 46.1404 60.0836 46.2724 60.2964 46.2476C61.1288 46.161 61.72 46.3301 62.0558 46.7509C62.6233 47.4646 62.4578 48.9001 61.6538 50.2326C61.0815 51.1855 60.0836 52.1921 58.9059 52.3777C59.0147 52.1096 59.1235 51.8332 59.2228 51.5485L59.6768 49.882C59.7241 49.7004 59.5964 49.5189 59.3883 49.4777C59.1802 49.4364 58.9721 49.5478 58.9248 49.7293L58.4755 51.3753C57.5249 54.0649 56.1392 55.9419 54.0913 57.2909C54.0866 57.2909 54.0866 57.295 54.0818 57.295C52.7576 58.2521 51.0833 58.7801 49.3618 58.7801C47.645 58.776 45.966 58.2479 44.6276 57.2785Z" fill="#3A643C"/>
<path d="M46.1402 46.9282C44.2957 48.1658 42.0492 46.9612 41.9499 46.9117C41.7702 46.8127 41.529 46.8581 41.4155 47.0148C41.302 47.1716 41.354 47.382 41.5337 47.481C41.6094 47.5222 42.7918 48.1617 44.239 48.1617C44.9957 48.1617 45.8234 47.9884 46.6037 47.4645C46.774 47.3531 46.8071 47.1386 46.6747 46.9901C46.5517 46.8457 46.3105 46.8168 46.1402 46.9282Z" fill="#3A643C"/>
<path d="M57.1888 47.4809C57.3686 47.3819 57.4206 47.1756 57.3071 47.0148C57.1936 46.858 56.9571 46.8085 56.7727 46.9075C56.6781 46.9611 54.4316 48.1616 52.5823 46.924C52.4121 46.8085 52.1709 46.8374 52.0384 46.9859C51.906 47.1344 51.9391 47.3448 52.1094 47.4603C52.8897 47.9842 53.7174 48.1574 54.4741 48.1574C55.9308 48.1616 57.1179 47.5222 57.1888 47.4809Z" fill="#3A643C"/>
<path d="M33.966 46.3136C32.1877 46.1693 32.0458 43.6034 32.0458 43.5786C32.0363 43.3971 31.8661 43.2568 31.658 43.2568C31.4499 43.2568 31.2796 43.4012 31.2702 43.5786C31.2702 43.6034 31.1283 46.1693 29.35 46.3136C29.1513 46.3301 29 46.4745 29 46.6478C29 46.821 29.1513 46.9654 29.35 46.9819C30.8256 47.1016 31.2371 49.5726 31.2702 50.5131C31.2749 50.6946 31.4499 50.839 31.658 50.839C31.8661 50.839 32.0363 50.6946 32.0458 50.5131C32.0789 49.5726 32.4904 47.1016 33.966 46.9819C34.1646 46.9654 34.316 46.821 34.316 46.6478C34.316 46.4745 34.1646 46.3301 33.966 46.3136ZM31.658 48.4381C31.4262 47.7616 31.0526 47.0809 30.4614 46.6767C31.0526 46.3425 31.4262 45.7939 31.658 45.2493C31.8897 45.7939 32.2634 46.3425 32.8545 46.6767C32.2634 47.0809 31.8897 47.7616 31.658 48.4381Z" fill="#3A643C"/>
<path d="M69.6496 35.7492C67.8713 35.6048 67.7294 33.0389 67.7294 33.0142C67.7199 32.8326 67.5497 32.6924 67.3416 32.6924C67.1335 32.6924 66.9632 32.8368 66.9537 33.0142C66.9537 33.0389 66.8119 35.6048 65.0336 35.7492C64.8349 35.7657 64.6836 35.9101 64.6836 36.0833C64.6836 36.2566 64.8349 36.401 65.0336 36.4175C66.5092 36.5371 66.9206 39.0081 66.9537 39.9487C66.9585 40.1302 67.1335 40.2746 67.3416 40.2746C67.5497 40.2746 67.7199 40.1302 67.7294 39.9487C67.7625 39.0081 68.1739 36.5371 69.6496 36.4175C69.8482 36.401 69.9995 36.2566 69.9995 36.0833C69.9995 35.9101 69.8482 35.7657 69.6496 35.7492ZM67.3463 37.8737C67.1145 37.1971 66.7409 36.5165 66.1497 36.1122C66.7409 35.7781 67.1145 35.2294 67.3463 34.6849C67.578 35.2294 67.9517 35.7781 68.5429 36.1122C67.9469 36.5165 67.578 37.1971 67.3463 37.8737Z" fill="#3A643C"/>
<path d="M36.7485 53.2478C35.9445 53.1818 35.8783 51.9896 35.8783 51.9772C35.8736 51.8576 35.7601 51.7627 35.6229 51.7627C35.4858 51.7627 35.3723 51.8576 35.3675 51.9772C35.3675 51.9896 35.2919 53.1818 34.4973 53.2478C34.3649 53.2602 34.2656 53.355 34.2656 53.4705C34.2656 53.5861 34.3649 53.6851 34.4973 53.6933C35.1594 53.7469 35.3486 54.935 35.3675 55.3475C35.3723 55.4672 35.4858 55.5662 35.6229 55.5662C35.7601 55.5662 35.8783 55.4713 35.8783 55.3475C35.8925 54.935 36.0864 53.7469 36.7485 53.6933C36.881 53.6809 36.9803 53.5861 36.9803 53.4705C36.9803 53.355 36.881 53.2602 36.7485 53.2478ZM35.6229 54.1347C35.5189 53.8872 35.3675 53.6562 35.1594 53.4912C35.3675 53.3509 35.5189 53.157 35.6229 52.9549C35.727 53.157 35.8783 53.3509 36.0864 53.4912C35.8783 53.6562 35.727 53.8872 35.6229 54.1347Z" fill="#3A643C"/>
<path d="M20.556 117.144C20.0547 117.144 19.5693 117.101 19.1 117.016C18.6307 116.941 18.188 116.824 17.772 116.664C17.356 116.504 16.9827 116.307 16.652 116.072C16.5133 115.976 16.412 115.859 16.348 115.72C16.2947 115.581 16.2787 115.448 16.3 115.32C16.332 115.181 16.3907 115.064 16.476 114.968C16.572 114.872 16.684 114.813 16.812 114.792C16.94 114.771 17.0787 114.813 17.228 114.92C17.7187 115.251 18.2307 115.491 18.764 115.64C19.308 115.789 19.9053 115.864 20.556 115.864C21.4947 115.864 22.1827 115.693 22.62 115.352C23.068 115.011 23.292 114.563 23.292 114.008C23.292 113.549 23.132 113.192 22.812 112.936C22.492 112.669 21.9533 112.461 21.196 112.312L19.5 111.96C18.4973 111.747 17.7453 111.395 17.244 110.904C16.7533 110.413 16.508 109.757 16.508 108.936C16.508 108.435 16.6093 107.981 16.812 107.576C17.0147 107.16 17.3027 106.803 17.676 106.504C18.0493 106.205 18.4867 105.976 18.988 105.816C19.5 105.656 20.0653 105.576 20.684 105.576C21.3453 105.576 21.964 105.667 22.54 105.848C23.1267 106.029 23.6547 106.296 24.124 106.648C24.252 106.744 24.3373 106.861 24.38 107C24.4227 107.128 24.428 107.256 24.396 107.384C24.3747 107.512 24.316 107.619 24.22 107.704C24.1347 107.789 24.0227 107.837 23.884 107.848C23.756 107.859 23.612 107.811 23.452 107.704C23.0253 107.405 22.588 107.192 22.14 107.064C21.692 106.925 21.2013 106.856 20.668 106.856C20.124 106.856 19.6493 106.941 19.244 107.112C18.8493 107.283 18.54 107.523 18.316 107.832C18.1027 108.131 17.996 108.483 17.996 108.888C17.996 109.379 18.1453 109.763 18.444 110.04C18.7427 110.317 19.244 110.531 19.948 110.68L21.628 111.016C22.6947 111.24 23.484 111.587 23.996 112.056C24.5187 112.515 24.78 113.133 24.78 113.912C24.78 114.403 24.6787 114.845 24.476 115.24C24.284 115.635 24.0067 115.976 23.644 116.264C23.2813 116.541 22.8387 116.76 22.316 116.92C21.7933 117.069 21.2067 117.144 20.556 117.144ZM27.2786 117.112C27.0546 117.112 26.8786 117.048 26.7506 116.92C26.6226 116.792 26.5586 116.605 26.5586 116.36V106.344C26.5586 106.099 26.6226 105.917 26.7506 105.8C26.8786 105.672 27.0546 105.608 27.2786 105.608C27.5133 105.608 27.6946 105.672 27.8226 105.8C27.9506 105.917 28.0146 106.099 28.0146 106.344V112.648H28.0466L31.1826 109.592C31.3426 109.432 31.4866 109.309 31.6146 109.224C31.7426 109.139 31.908 109.096 32.1106 109.096C32.3133 109.096 32.468 109.149 32.5746 109.256C32.6813 109.352 32.7346 109.48 32.7346 109.64C32.7346 109.789 32.66 109.939 32.5106 110.088L29.1826 113.32V112.6L32.8146 116.104C32.964 116.253 33.0333 116.408 33.0226 116.568C33.0226 116.728 32.964 116.861 32.8466 116.968C32.74 117.064 32.596 117.112 32.4146 117.112C32.2013 117.112 32.0253 117.069 31.8866 116.984C31.7586 116.899 31.6093 116.765 31.4386 116.584L28.0466 113.384H28.0146V116.36C28.0146 116.861 27.7693 117.112 27.2786 117.112ZM35.4036 117.08C35.1796 117.08 35.0036 117.011 34.8756 116.872C34.7476 116.733 34.6836 116.541 34.6836 116.296V109.912C34.6836 109.656 34.7476 109.464 34.8756 109.336C35.0036 109.197 35.1796 109.128 35.4036 109.128C35.6383 109.128 35.8196 109.197 35.9476 109.336C36.0756 109.464 36.1396 109.656 36.1396 109.912V116.296C36.1396 116.541 36.0756 116.733 35.9476 116.872C35.8303 117.011 35.649 117.08 35.4036 117.08ZM35.4036 107.4C35.1156 107.4 34.8863 107.325 34.7156 107.176C34.5556 107.016 34.4756 106.808 34.4756 106.552C34.4756 106.275 34.5556 106.067 34.7156 105.928C34.8863 105.779 35.1156 105.704 35.4036 105.704C35.713 105.704 35.9423 105.779 36.0916 105.928C36.2516 106.067 36.3316 106.275 36.3316 106.552C36.3316 106.808 36.2516 107.016 36.0916 107.176C35.9423 107.325 35.713 107.4 35.4036 107.4ZM39.2005 117.112C38.9765 117.112 38.8005 117.048 38.6725 116.92C38.5445 116.792 38.4805 116.605 38.4805 116.36V109.832C38.4805 109.587 38.5445 109.405 38.6725 109.288C38.8005 109.16 38.9765 109.096 39.2005 109.096C39.4245 109.096 39.5952 109.16 39.7125 109.288C39.8405 109.405 39.9045 109.587 39.9045 109.832V111.144L39.7285 110.904C39.9525 110.296 40.3152 109.837 40.8165 109.528C41.3285 109.219 41.9098 109.064 42.5605 109.064C43.1898 109.064 43.7072 109.176 44.1125 109.4C44.5178 109.624 44.8218 109.965 45.0245 110.424C45.2272 110.883 45.3285 111.464 45.3285 112.168V116.36C45.3285 116.605 45.2645 116.792 45.1365 116.92C45.0192 117.048 44.8432 117.112 44.6085 117.112C44.3738 117.112 44.1925 117.048 44.0645 116.92C43.9365 116.792 43.8725 116.605 43.8725 116.36V112.248C43.8725 111.555 43.7392 111.048 43.4725 110.728C43.2058 110.408 42.7792 110.248 42.1925 110.248C41.5098 110.248 40.9605 110.461 40.5445 110.888C40.1392 111.304 39.9365 111.869 39.9365 112.584V116.36C39.9365 116.861 39.6912 117.112 39.2005 117.112ZM56.9606 117.144C55.8406 117.144 54.8806 116.909 54.0806 116.44C53.2806 115.971 52.662 115.304 52.2246 114.44C51.798 113.565 51.5846 112.536 51.5846 111.352C51.5846 110.467 51.7073 109.672 51.9526 108.968C52.198 108.253 52.55 107.645 53.0086 107.144C53.4673 106.632 54.0273 106.243 54.6886 105.976C55.3606 105.709 56.118 105.576 56.9606 105.576C57.6006 105.576 58.214 105.667 58.8006 105.848C59.398 106.029 59.91 106.285 60.3366 106.616C60.5073 106.733 60.6193 106.867 60.6726 107.016C60.726 107.165 60.7313 107.309 60.6886 107.448C60.6566 107.576 60.5873 107.688 60.4806 107.784C60.3846 107.869 60.262 107.917 60.1126 107.928C59.9633 107.928 59.8033 107.869 59.6326 107.752C59.2593 107.464 58.8486 107.256 58.4006 107.128C57.9633 106.989 57.494 106.92 56.9926 106.92C56.1713 106.92 55.4726 107.096 54.8966 107.448C54.3313 107.789 53.8993 108.291 53.6006 108.952C53.3126 109.603 53.1686 110.403 53.1686 111.352C53.1686 112.291 53.3126 113.096 53.6006 113.768C53.8993 114.429 54.3313 114.936 54.8966 115.288C55.4726 115.629 56.1713 115.8 56.9926 115.8C57.494 115.8 57.9686 115.731 58.4166 115.592C58.8753 115.453 59.2966 115.24 59.6806 114.952C59.8513 114.835 60.006 114.781 60.1446 114.792C60.294 114.803 60.4166 114.851 60.5126 114.936C60.6086 115.011 60.6726 115.117 60.7046 115.256C60.7473 115.384 60.7473 115.517 60.7046 115.656C60.662 115.795 60.566 115.917 60.4166 116.024C59.9793 116.397 59.4566 116.68 58.8486 116.872C58.2513 117.053 57.622 117.144 56.9606 117.144ZM64.8199 117.144C64.2865 117.144 63.8012 117.037 63.3639 116.824C62.9372 116.611 62.6012 116.323 62.3559 115.96C62.1212 115.597 62.0039 115.192 62.0039 114.744C62.0039 114.168 62.1479 113.715 62.4359 113.384C62.7239 113.053 63.2092 112.819 63.8919 112.68C64.5745 112.531 65.4919 112.456 66.6439 112.456H67.3959V113.384H66.6759C65.8545 113.384 65.2039 113.421 64.7239 113.496C64.2545 113.571 63.9239 113.704 63.7319 113.896C63.5399 114.077 63.4439 114.333 63.4439 114.664C63.4439 115.08 63.5879 115.421 63.8759 115.688C64.1745 115.955 64.5799 116.088 65.0919 116.088C65.4972 116.088 65.8545 115.992 66.1639 115.8C66.4732 115.597 66.7185 115.331 66.8999 115C67.0812 114.659 67.1719 114.269 67.1719 113.832V111.992C67.1719 111.363 67.0439 110.909 66.7879 110.632C66.5319 110.344 66.0999 110.2 65.4919 110.2C65.1399 110.2 64.7772 110.248 64.4039 110.344C64.0305 110.44 63.6412 110.589 63.2359 110.792C63.0759 110.867 62.9372 110.893 62.8199 110.872C62.7025 110.84 62.6065 110.776 62.5319 110.68C62.4679 110.573 62.4305 110.461 62.4199 110.344C62.4199 110.216 62.4465 110.093 62.4999 109.976C62.5639 109.859 62.6705 109.773 62.8199 109.72C63.2892 109.485 63.7532 109.32 64.2119 109.224C64.6812 109.117 65.1185 109.064 65.5239 109.064C66.2172 109.064 66.7879 109.176 67.2359 109.4C67.6839 109.613 68.0199 109.949 68.2439 110.408C68.4679 110.856 68.5799 111.432 68.5799 112.136V116.36C68.5799 116.605 68.5212 116.792 68.4039 116.92C68.2865 117.048 68.1159 117.112 67.8919 117.112C67.6785 117.112 67.5079 117.048 67.3799 116.92C67.2625 116.792 67.2039 116.605 67.2039 116.36V115.224H67.3479C67.2625 115.619 67.1025 115.96 66.8679 116.248C66.6332 116.536 66.3399 116.76 65.9879 116.92C65.6465 117.069 65.2572 117.144 64.8199 117.144ZM71.6231 117.112C71.3778 117.112 71.1911 117.048 71.0631 116.92C70.9351 116.792 70.8711 116.605 70.8711 116.36V109.832C70.8711 109.587 70.9351 109.405 71.0631 109.288C71.1911 109.16 71.3671 109.096 71.5911 109.096C71.8151 109.096 71.9858 109.16 72.1031 109.288C72.2311 109.405 72.2951 109.587 72.2951 109.832V111.064H72.1351C72.3058 110.424 72.6258 109.939 73.0951 109.608C73.5645 109.277 74.1565 109.091 74.8711 109.048C75.0418 109.037 75.1805 109.08 75.2871 109.176C75.3938 109.261 75.4525 109.411 75.4631 109.624C75.4738 109.827 75.4258 109.992 75.3191 110.12C75.2125 110.237 75.0471 110.307 74.8231 110.328L74.5351 110.344C73.8311 110.419 73.2871 110.648 72.9031 111.032C72.5298 111.416 72.3431 111.944 72.3431 112.616V116.36C72.3431 116.605 72.2791 116.792 72.1511 116.92C72.0338 117.048 71.8578 117.112 71.6231 117.112ZM80.2055 117.144C79.3628 117.144 78.6375 116.984 78.0295 116.664C77.4322 116.333 76.9682 115.869 76.6375 115.272C76.3068 114.664 76.1415 113.949 76.1415 113.128C76.1415 112.317 76.3015 111.608 76.6215 111C76.9522 110.392 77.4002 109.917 77.9655 109.576C78.5415 109.235 79.1975 109.064 79.9335 109.064C80.4562 109.064 80.9255 109.155 81.3415 109.336C81.7682 109.507 82.1308 109.757 82.4295 110.088C82.7282 110.419 82.9522 110.824 83.1015 111.304C83.2615 111.773 83.3415 112.307 83.3415 112.904C83.3415 113.075 83.2882 113.208 83.1815 113.304C83.0855 113.389 82.9415 113.432 82.7495 113.432H77.2775V112.504H82.3815L82.1095 112.728C82.1095 112.173 82.0242 111.704 81.8535 111.32C81.6935 110.925 81.4535 110.627 81.1335 110.424C80.8242 110.221 80.4348 110.12 79.9655 110.12C79.4535 110.12 79.0162 110.243 78.6535 110.488C78.2908 110.723 78.0135 111.059 77.8215 111.496C77.6295 111.923 77.5335 112.419 77.5335 112.984V113.08C77.5335 114.04 77.7628 114.765 78.2215 115.256C78.6802 115.747 79.3415 115.992 80.2055 115.992C80.5468 115.992 80.8935 115.949 81.2455 115.864C81.6082 115.779 81.9548 115.624 82.2855 115.4C82.4455 115.304 82.5895 115.261 82.7175 115.272C82.8562 115.272 82.9682 115.315 83.0535 115.4C83.1388 115.475 83.1922 115.571 83.2135 115.688C83.2348 115.795 83.2188 115.912 83.1655 116.04C83.1122 116.168 83.0108 116.28 82.8615 116.376C82.5095 116.621 82.0882 116.813 81.5975 116.952C81.1175 117.08 80.6535 117.144 80.2055 117.144Z" fill="black"/>
</svg>
