<svg width="121" height="123" viewBox="0 0 121 123" fill="none" xmlns="http://www.w3.org/2000/svg">
<rect x="11" y="0.5" width="99" height="95" rx="8.5" fill="#FFFCF2"/>
<rect x="11" y="0.5" width="99" height="95" rx="8.5" stroke="#EAEAEA"/>
<g clip-path="url(#clip0_574_1380)">
<mask id="mask0_574_1380" style="mask-type:luminance" maskUnits="userSpaceOnUse" x="19" y="10" width="85" height="78">
<path d="M103.5 10H19.5V88H103.5V10Z" fill="white"/>
</mask>
<g mask="url(#mask0_574_1380)">
<path d="M64.2857 10H58.7143C38.7137 10 22.5 27.4609 22.5 49C22.5 70.5391 38.7137 88 58.7143 88H64.2857C84.2863 88 100.5 70.5391 100.5 49C100.5 27.4609 84.2863 10 64.2857 10Z" fill="white"/>
<path d="M61 81C78.9493 81 93.5 66.6731 93.5 49C93.5 31.3269 78.9493 17 61 17C43.0507 17 28.5 31.3269 28.5 49C28.5 66.6731 43.0507 81 61 81Z" fill="#E0E8E2"/>
<path d="M59.5 25H63.5C76.2025 25 86.5 35.9691 86.5 49.5C86.5 63.0309 76.2025 74 63.5 74H59.5C46.7975 74 36.5 63.0309 36.5 49.5C36.5 35.9691 46.7975 25 59.5 25Z" fill="#FDF8E5"/>
<path d="M71.5987 68C78.6408 64.5281 83.5 57.3708 83.5 49.3759C83.5 38.1572 74.0026 29 62.0574 29C61.2105 29 60.3614 29.0651 59.5 29.1442C59.5709 29.3279 59.6405 29.5098 59.7097 29.6902C60.1714 30.8948 60.6066 32.0302 61.1657 33.1725L61.1711 33.1837L61.176 33.1951C61.9132 34.9022 62.8643 36.6166 63.8197 38.1354C64.8867 39.7632 65.9472 41.2791 67.2166 42.7922L67.2216 42.7981L67.2264 42.8042C68.5369 44.4704 69.6263 46.2375 70.6033 48.1007L70.6102 48.1138L70.6163 48.1274C72.3556 51.9626 73.4562 56.1365 73.3476 60.3331C73.3463 62.9123 72.7195 65.6322 71.5987 68Z" fill="#E0E8E2" stroke="#3A643C"/>
<path d="M71.0518 60.4863L71.0505 60.4748C70.7016 56.8794 69.42 53.3645 67.6511 49.9216L67.645 49.9093C66.8348 48.2198 65.7891 46.72 64.4912 45.099C63.1667 43.4447 61.9562 41.6792 60.9851 39.803C60.0229 37.9441 59.1708 35.9629 58.6816 33.9678L58.6794 33.9586L58.6775 33.9494C58.3543 32.3769 58.1273 30.8039 57.9966 29.3037C55.9079 29.6112 53.98 30.2037 52.1289 30.893C53.1863 35.623 54.8528 39.4584 59.4172 44.6534C61.054 46.3729 64.0988 50.1541 65.928 54.8661C67.6708 59.3557 68.3267 64.7423 65.5406 69.979C67.1261 69.7736 68.7067 69.431 70.2106 69.0113C71.1796 66.2044 71.3911 63.3031 71.0518 60.4863Z" fill="#E0E8E2" stroke="#3A643C"/>
<path d="M50.4272 43.0933C50.1891 44.1155 50.1891 44.2177 49.5938 44.4222C50.9032 44.5244 53.8794 44.5244 55.07 43.0933C53.9985 43.2977 51.6176 43.7066 50.4272 43.0933Z" fill="white"/>
<path d="M49.2398 40.64C49.716 40.1289 52.5731 40.1289 54.0017 40.2311C52.9303 39.72 50.4303 39.9245 49.2398 40.0267C49.0017 40.4356 48.6446 41.1511 49.2398 40.64Z" fill="white"/>
<path d="M47.2279 56.5913L47.2369 56.5859L47.246 56.5808C47.2834 56.5603 47.286 56.5469 47.288 56.541C47.2946 56.5223 47.3032 56.4755 47.2904 56.3899C47.2705 56.2563 47.2109 56.1106 47.1518 56.0032C46.5286 55.7073 46.1713 55.2649 46.0859 54.7375C46.0377 54.4407 46.0837 54.1606 46.1743 53.9223C46.0992 53.8339 46.0386 53.7335 45.9933 53.6232C45.8834 53.3555 45.8821 53.0736 45.9191 52.837C45.9565 52.5975 46.0383 52.3692 46.1339 52.1785C46.2195 52.0079 46.33 51.8399 46.4565 51.714C46.4965 51.6566 46.5167 51.5769 46.4709 51.4513C46.4125 51.2912 46.2328 51.0368 45.7869 50.765L45.7807 50.7613L45.7747 50.7574C45.3188 50.4598 45.0415 50.085 45.0133 49.647C44.9866 49.2341 45.1928 48.9207 45.3727 48.7522C46.4412 47.6777 47.0944 46.983 49.2934 44.4022C49.0551 42.5997 49.2585 40.5554 49.608 38.725C49.9604 36.8795 50.469 35.2116 50.862 34.1612C50.8072 33.7363 50.7113 33.322 50.5992 32.8895C50.5656 32.7597 50.53 32.6266 50.4937 32.4907C50.4509 32.3305 50.407 32.1666 50.3642 32C43.8982 35.4528 39.5 41.9406 39.5 49.3218C39.5 60.4408 49.4348 70 61.6485 70H62.1814C62.2197 69.9352 62.2575 69.8664 62.2991 69.7903L62.304 69.7815C62.3598 69.6795 62.4232 69.5636 62.5 69.4429C62.3384 67.8122 61.313 65.4701 59.9311 63.4975C59.2215 62.4845 58.4373 61.5977 57.663 60.9753C56.8801 60.3461 56.1623 60.0307 55.5704 60.0493C51.8013 60.2518 50.5514 60.2537 48.7398 60.0468C47.6772 59.9254 47.0286 59.2694 46.7732 58.5359C46.649 58.1792 46.6171 57.8012 46.6804 57.4628C46.7427 57.1299 46.9099 56.7851 47.2279 56.5913Z" fill="#E0E8E2" stroke="#147A36"/>
<path d="M49.5938 46.4222C50.9032 46.5244 53.8794 46.5244 55.07 45.0933C53.9985 45.2977 51.6176 45.7066 50.4272 45.0933C50.1891 46.1155 50.1891 46.2177 49.5938 46.4222Z" fill="#6B8E70"/>
<path d="M49.2398 42.64C49.716 42.1289 52.5731 42.1289 54.0017 42.2311C52.9303 41.72 50.4303 41.9245 49.2398 42.0267C49.0017 42.4356 48.6446 43.1511 49.2398 42.64Z" fill="#3A643C"/>
</g>
</g>
<path d="M5.056 118.112C4.84267 118.112 4.672 118.059 4.544 117.952C4.416 117.845 4.30933 117.675 4.224 117.44L0.736 107.488C0.64 107.243 0.650667 107.035 0.768 106.864C0.896 106.693 1.104 106.608 1.392 106.608C1.59467 106.608 1.75467 106.656 1.872 106.752C1.98933 106.848 2.08533 107.008 2.16 107.232L5.376 116.672H4.8L8.096 107.264C8.18133 107.04 8.28267 106.875 8.4 106.768C8.51733 106.661 8.672 106.608 8.864 106.608C9.06667 106.608 9.22133 106.661 9.328 106.768C9.44533 106.875 9.54133 107.045 9.616 107.28L12.848 116.672H12.336L15.584 107.232C15.6587 107.019 15.7547 106.864 15.872 106.768C15.9893 106.661 16.1547 106.608 16.368 106.608C16.6133 106.608 16.7947 106.693 16.912 106.864C17.0293 107.035 17.0453 107.243 16.96 107.488L13.44 117.456C13.3653 117.68 13.264 117.845 13.136 117.952C13.008 118.059 12.8373 118.112 12.624 118.112C12.4 118.112 12.224 118.059 12.096 117.952C11.968 117.845 11.8613 117.675 11.776 117.44L8.656 108.48H9.008L5.872 117.456C5.78667 117.68 5.68 117.845 5.552 117.952C5.43467 118.059 5.26933 118.112 5.056 118.112ZM21.1831 118.144C20.4151 118.144 19.7485 117.979 19.1831 117.648C18.6178 117.317 18.1805 116.848 17.8711 116.24C17.5618 115.632 17.4071 114.917 17.4071 114.096C17.4071 113.477 17.4925 112.923 17.6631 112.432C17.8445 111.931 18.1005 111.504 18.4311 111.152C18.7618 110.8 19.1565 110.533 19.6151 110.352C20.0845 110.16 20.6071 110.064 21.1831 110.064C21.9511 110.064 22.6178 110.229 23.1831 110.56C23.7485 110.891 24.1858 111.36 24.4951 111.968C24.8045 112.565 24.9591 113.275 24.9591 114.096C24.9591 114.715 24.8685 115.275 24.6871 115.776C24.5165 116.277 24.2658 116.704 23.9351 117.056C23.6045 117.408 23.2045 117.68 22.7351 117.872C22.2765 118.053 21.7591 118.144 21.1831 118.144ZM21.1831 116.992C21.6525 116.992 22.0578 116.88 22.3991 116.656C22.7511 116.432 23.0178 116.107 23.1991 115.68C23.3911 115.253 23.4871 114.725 23.4871 114.096C23.4871 113.157 23.2791 112.443 22.8631 111.952C22.4471 111.461 21.8871 111.216 21.1831 111.216C20.7245 111.216 20.3191 111.328 19.9671 111.552C19.6258 111.765 19.3591 112.085 19.1671 112.512C18.9751 112.939 18.8791 113.467 18.8791 114.096C18.8791 115.035 19.0871 115.755 19.5031 116.256C19.9298 116.747 20.4898 116.992 21.1831 116.992ZM27.5763 118.112C27.3523 118.112 27.1763 118.048 27.0483 117.92C26.9203 117.792 26.8563 117.605 26.8563 117.36V110.832C26.8563 110.587 26.9203 110.405 27.0483 110.288C27.1763 110.16 27.3523 110.096 27.5763 110.096C27.8003 110.096 27.9709 110.16 28.0883 110.288C28.2163 110.405 28.2803 110.587 28.2803 110.832V112.192L28.1043 111.904C28.3069 111.317 28.6323 110.864 29.0803 110.544C29.5389 110.224 30.0829 110.064 30.7123 110.064C31.3736 110.064 31.9069 110.224 32.3123 110.544C32.7176 110.853 32.9896 111.328 33.1283 111.968H32.9043C33.0963 111.381 33.4376 110.917 33.9283 110.576C34.4296 110.235 35.0109 110.064 35.6723 110.064C36.2589 110.064 36.7389 110.181 37.1123 110.416C37.4963 110.64 37.7843 110.981 37.9763 111.44C38.1683 111.888 38.2643 112.464 38.2643 113.168V117.36C38.2643 117.605 38.2003 117.792 38.0723 117.92C37.9443 118.048 37.7683 118.112 37.5443 118.112C37.3096 118.112 37.1283 118.048 37.0003 117.92C36.8723 117.792 36.8083 117.605 36.8083 117.36V113.232C36.8083 112.549 36.6909 112.048 36.4563 111.728C36.2216 111.408 35.8269 111.248 35.2723 111.248C34.6643 111.248 34.1789 111.461 33.8163 111.888C33.4643 112.304 33.2883 112.88 33.2883 113.616V117.36C33.2883 117.605 33.2243 117.792 33.0963 117.92C32.9789 118.048 32.8029 118.112 32.5683 118.112C32.3336 118.112 32.1523 118.048 32.0243 117.92C31.8963 117.792 31.8323 117.605 31.8323 117.36V113.232C31.8323 112.549 31.7149 112.048 31.4803 111.728C31.2456 111.408 30.8509 111.248 30.2963 111.248C29.6883 111.248 29.2029 111.461 28.8403 111.888C28.4883 112.304 28.3123 112.88 28.3123 113.616V117.36C28.3123 117.861 28.0669 118.112 27.5763 118.112ZM44.2055 118.144C43.3628 118.144 42.6375 117.984 42.0295 117.664C41.4322 117.333 40.9682 116.869 40.6375 116.272C40.3068 115.664 40.1415 114.949 40.1415 114.128C40.1415 113.317 40.3015 112.608 40.6215 112C40.9522 111.392 41.4002 110.917 41.9655 110.576C42.5415 110.235 43.1975 110.064 43.9335 110.064C44.4562 110.064 44.9255 110.155 45.3415 110.336C45.7682 110.507 46.1308 110.757 46.4295 111.088C46.7282 111.419 46.9522 111.824 47.1015 112.304C47.2615 112.773 47.3415 113.307 47.3415 113.904C47.3415 114.075 47.2882 114.208 47.1815 114.304C47.0855 114.389 46.9415 114.432 46.7495 114.432H41.2775V113.504H46.3815L46.1095 113.728C46.1095 113.173 46.0242 112.704 45.8535 112.32C45.6935 111.925 45.4535 111.627 45.1335 111.424C44.8242 111.221 44.4348 111.12 43.9655 111.12C43.4535 111.12 43.0162 111.243 42.6535 111.488C42.2908 111.723 42.0135 112.059 41.8215 112.496C41.6295 112.923 41.5335 113.419 41.5335 113.984V114.08C41.5335 115.04 41.7628 115.765 42.2215 116.256C42.6802 116.747 43.3415 116.992 44.2055 116.992C44.5468 116.992 44.8935 116.949 45.2455 116.864C45.6082 116.779 45.9548 116.624 46.2855 116.4C46.4455 116.304 46.5895 116.261 46.7175 116.272C46.8562 116.272 46.9682 116.315 47.0535 116.4C47.1388 116.475 47.1922 116.571 47.2135 116.688C47.2348 116.795 47.2188 116.912 47.1655 117.04C47.1122 117.168 47.0108 117.28 46.8615 117.376C46.5095 117.621 46.0882 117.813 45.5975 117.952C45.1175 118.08 44.6535 118.144 44.2055 118.144ZM49.8724 118.112C49.6484 118.112 49.4724 118.048 49.3444 117.92C49.2164 117.792 49.1524 117.605 49.1524 117.36V110.832C49.1524 110.587 49.2164 110.405 49.3444 110.288C49.4724 110.16 49.6484 110.096 49.8724 110.096C50.0964 110.096 50.267 110.16 50.3844 110.288C50.5124 110.405 50.5764 110.587 50.5764 110.832V112.144L50.4004 111.904C50.6244 111.296 50.987 110.837 51.4884 110.528C52.0004 110.219 52.5817 110.064 53.2324 110.064C53.8617 110.064 54.379 110.176 54.7844 110.4C55.1897 110.624 55.4937 110.965 55.6964 111.424C55.899 111.883 56.0004 112.464 56.0004 113.168V117.36C56.0004 117.605 55.9364 117.792 55.8084 117.92C55.691 118.048 55.515 118.112 55.2804 118.112C55.0457 118.112 54.8644 118.048 54.7364 117.92C54.6084 117.792 54.5444 117.605 54.5444 117.36V113.248C54.5444 112.555 54.411 112.048 54.1444 111.728C53.8777 111.408 53.451 111.248 52.8644 111.248C52.1817 111.248 51.6324 111.461 51.2164 111.888C50.811 112.304 50.6084 112.869 50.6084 113.584V117.36C50.6084 117.861 50.363 118.112 49.8724 118.112ZM58.8758 110.048C58.7691 110.187 58.6518 110.267 58.5238 110.288C58.4064 110.309 58.2998 110.288 58.2038 110.224C58.1184 110.16 58.0704 110.064 58.0598 109.936C58.0491 109.808 58.1024 109.669 58.2198 109.52C58.4011 109.296 58.5238 109.067 58.5878 108.832C58.6624 108.587 58.6998 108.368 58.6998 108.176L58.7638 108.544C58.4651 108.544 58.2198 108.459 58.0278 108.288C57.8464 108.117 57.7558 107.888 57.7558 107.6C57.7558 107.323 57.8411 107.099 58.0118 106.928C58.1824 106.747 58.4118 106.656 58.6998 106.656C58.9878 106.656 59.2171 106.757 59.3878 106.96C59.5691 107.152 59.6598 107.44 59.6598 107.824C59.6598 108.048 59.6331 108.288 59.5798 108.544C59.5371 108.789 59.4624 109.04 59.3558 109.296C59.2491 109.552 59.0891 109.803 58.8758 110.048ZM63.9654 118.144C63.4854 118.144 63 118.091 62.5094 117.984C62.0294 117.867 61.576 117.669 61.1494 117.392C61.032 117.317 60.9467 117.227 60.8934 117.12C60.8507 117.003 60.8347 116.891 60.8454 116.784C60.8667 116.667 60.9147 116.565 60.9894 116.48C61.064 116.395 61.1547 116.347 61.2614 116.336C61.3787 116.315 61.5014 116.341 61.6294 116.416C62.0454 116.651 62.4454 116.816 62.8294 116.912C63.224 117.008 63.6134 117.056 63.9974 117.056C64.584 117.056 65.0267 116.949 65.3254 116.736C65.624 116.523 65.7734 116.24 65.7734 115.888C65.7734 115.589 65.672 115.36 65.4694 115.2C65.2774 115.029 64.9734 114.901 64.5574 114.816L63.0694 114.512C62.408 114.363 61.9067 114.117 61.5654 113.776C61.2347 113.424 61.0694 112.976 61.0694 112.432C61.0694 111.952 61.1974 111.536 61.4534 111.184C61.72 110.821 62.088 110.544 62.5574 110.352C63.0267 110.16 63.5654 110.064 64.1734 110.064C64.6427 110.064 65.0854 110.128 65.5014 110.256C65.928 110.373 66.312 110.555 66.6534 110.8C66.7814 110.875 66.8614 110.971 66.8934 111.088C66.936 111.195 66.9414 111.307 66.9094 111.424C66.888 111.531 66.84 111.621 66.7654 111.696C66.6907 111.771 66.5947 111.819 66.4774 111.84C66.36 111.851 66.232 111.819 66.0934 111.744C65.784 111.531 65.464 111.381 65.1334 111.296C64.8134 111.2 64.4934 111.152 64.1734 111.152C63.5974 111.152 63.16 111.264 62.8614 111.488C62.5734 111.712 62.4294 112.005 62.4294 112.368C62.4294 112.645 62.5147 112.875 62.6854 113.056C62.8667 113.237 63.1494 113.371 63.5334 113.456L65.0214 113.76C65.7147 113.909 66.2374 114.149 66.5894 114.48C66.9414 114.8 67.1174 115.237 67.1174 115.792C67.1174 116.517 66.8294 117.093 66.2534 117.52C65.688 117.936 64.9254 118.144 63.9654 118.144ZM74.1116 118.112C73.877 118.112 73.6956 118.048 73.5676 117.92C73.4396 117.781 73.3756 117.589 73.3756 117.344V107.376C73.3756 107.12 73.4396 106.928 73.5676 106.8C73.6956 106.672 73.877 106.608 74.1116 106.608C74.357 106.608 74.5436 106.672 74.6716 106.8C74.7996 106.928 74.8636 107.12 74.8636 107.376V111.648H81.3916V107.376C81.3916 107.12 81.4556 106.928 81.5836 106.8C81.7116 106.672 81.8983 106.608 82.1436 106.608C82.3783 106.608 82.5596 106.672 82.6876 106.8C82.8156 106.928 82.8796 107.12 82.8796 107.376V117.344C82.8796 117.589 82.8156 117.781 82.6876 117.92C82.5596 118.048 82.3783 118.112 82.1436 118.112C81.8983 118.112 81.7116 118.048 81.5836 117.92C81.4556 117.781 81.3916 117.589 81.3916 117.344V112.912H74.8636V117.344C74.8636 117.589 74.7996 117.781 74.6716 117.92C74.5543 118.048 74.3676 118.112 74.1116 118.112ZM89.0024 118.144C88.1597 118.144 87.4344 117.984 86.8264 117.664C86.229 117.333 85.765 116.869 85.4344 116.272C85.1037 115.664 84.9384 114.949 84.9384 114.128C84.9384 113.317 85.0984 112.608 85.4184 112C85.749 111.392 86.197 110.917 86.7624 110.576C87.3384 110.235 87.9944 110.064 88.7304 110.064C89.253 110.064 89.7224 110.155 90.1384 110.336C90.565 110.507 90.9277 110.757 91.2264 111.088C91.525 111.419 91.749 111.824 91.8984 112.304C92.0584 112.773 92.1384 113.307 92.1384 113.904C92.1384 114.075 92.085 114.208 91.9784 114.304C91.8824 114.389 91.7384 114.432 91.5464 114.432H86.0744V113.504H91.1784L90.9064 113.728C90.9064 113.173 90.821 112.704 90.6504 112.32C90.4904 111.925 90.2504 111.627 89.9304 111.424C89.621 111.221 89.2317 111.12 88.7624 111.12C88.2504 111.12 87.813 111.243 87.4504 111.488C87.0877 111.723 86.8104 112.059 86.6184 112.496C86.4264 112.923 86.3304 113.419 86.3304 113.984V114.08C86.3304 115.04 86.5597 115.765 87.0184 116.256C87.477 116.747 88.1384 116.992 89.0024 116.992C89.3437 116.992 89.6904 116.949 90.0424 116.864C90.405 116.779 90.7517 116.624 91.0824 116.4C91.2424 116.304 91.3864 116.261 91.5144 116.272C91.653 116.272 91.765 116.315 91.8504 116.4C91.9357 116.475 91.989 116.571 92.0104 116.688C92.0317 116.795 92.0157 116.912 91.9624 117.04C91.909 117.168 91.8077 117.28 91.6584 117.376C91.3064 117.621 90.885 117.813 90.3944 117.952C89.9144 118.08 89.4504 118.144 89.0024 118.144ZM96.4293 118.144C95.8959 118.144 95.4106 118.037 94.9733 117.824C94.5466 117.611 94.2106 117.323 93.9653 116.96C93.7306 116.597 93.6133 116.192 93.6133 115.744C93.6133 115.168 93.7573 114.715 94.0453 114.384C94.3333 114.053 94.8186 113.819 95.5013 113.68C96.1839 113.531 97.1013 113.456 98.2533 113.456H99.0053V114.384H98.2853C97.4639 114.384 96.8133 114.421 96.3333 114.496C95.8639 114.571 95.5333 114.704 95.3413 114.896C95.1493 115.077 95.0533 115.333 95.0533 115.664C95.0533 116.08 95.1973 116.421 95.4853 116.688C95.7839 116.955 96.1893 117.088 96.7013 117.088C97.1066 117.088 97.4639 116.992 97.7733 116.8C98.0826 116.597 98.3279 116.331 98.5093 116C98.6906 115.659 98.7813 115.269 98.7813 114.832V112.992C98.7813 112.363 98.6533 111.909 98.3973 111.632C98.1413 111.344 97.7093 111.2 97.1013 111.2C96.7493 111.2 96.3866 111.248 96.0133 111.344C95.6399 111.44 95.2506 111.589 94.8453 111.792C94.6853 111.867 94.5466 111.893 94.4293 111.872C94.3119 111.84 94.2159 111.776 94.1413 111.68C94.0773 111.573 94.0399 111.461 94.0293 111.344C94.0293 111.216 94.0559 111.093 94.1093 110.976C94.1733 110.859 94.2799 110.773 94.4293 110.72C94.8986 110.485 95.3626 110.32 95.8213 110.224C96.2906 110.117 96.7279 110.064 97.1333 110.064C97.8266 110.064 98.3973 110.176 98.8453 110.4C99.2933 110.613 99.6293 110.949 99.8533 111.408C100.077 111.856 100.189 112.432 100.189 113.136V117.36C100.189 117.605 100.131 117.792 100.013 117.92C99.8959 118.048 99.7253 118.112 99.5013 118.112C99.2879 118.112 99.1173 118.048 98.9893 117.92C98.8719 117.792 98.8133 117.605 98.8133 117.36V116.224H98.9573C98.8719 116.619 98.7119 116.96 98.4773 117.248C98.2426 117.536 97.9493 117.76 97.5973 117.92C97.2559 118.069 96.8666 118.144 96.4293 118.144ZM104.929 118.144C104.129 118.144 103.521 117.909 103.105 117.44C102.689 116.96 102.481 116.272 102.481 115.376V107.344C102.481 107.099 102.545 106.917 102.673 106.8C102.801 106.672 102.977 106.608 103.201 106.608C103.435 106.608 103.617 106.672 103.745 106.8C103.873 106.917 103.937 107.099 103.937 107.344V115.264C103.937 115.819 104.049 116.235 104.273 116.512C104.507 116.779 104.838 116.912 105.265 116.912C105.361 116.912 105.446 116.912 105.521 116.912C105.595 116.901 105.67 116.891 105.745 116.88C105.862 116.869 105.947 116.901 106.001 116.976C106.054 117.051 106.081 117.2 106.081 117.424C106.081 117.627 106.033 117.787 105.937 117.904C105.851 118.011 105.707 118.08 105.505 118.112C105.409 118.123 105.313 118.128 105.217 118.128C105.121 118.139 105.025 118.144 104.929 118.144ZM110.369 118.144C109.739 118.144 109.211 118.032 108.785 117.808C108.369 117.584 108.054 117.259 107.841 116.832C107.638 116.405 107.537 115.883 107.537 115.264V111.328H106.513C106.321 111.328 106.171 111.28 106.065 111.184C105.958 111.077 105.905 110.939 105.905 110.768C105.905 110.587 105.958 110.448 106.065 110.352C106.171 110.256 106.321 110.208 106.513 110.208H107.537V108.464C107.537 108.219 107.601 108.037 107.729 107.92C107.857 107.792 108.038 107.728 108.273 107.728C108.507 107.728 108.683 107.792 108.801 107.92C108.929 108.037 108.993 108.219 108.993 108.464V110.208H110.929C111.131 110.208 111.286 110.256 111.393 110.352C111.499 110.448 111.553 110.587 111.553 110.768C111.553 110.939 111.499 111.077 111.393 111.184C111.286 111.28 111.131 111.328 110.929 111.328H108.993V115.136C108.993 115.723 109.115 116.165 109.361 116.464C109.606 116.763 110.011 116.912 110.577 116.912C110.779 116.912 110.95 116.896 111.089 116.864C111.227 116.821 111.35 116.8 111.457 116.8C111.553 116.789 111.633 116.821 111.697 116.896C111.771 116.971 111.809 117.109 111.809 117.312C111.809 117.461 111.782 117.6 111.729 117.728C111.686 117.845 111.595 117.925 111.457 117.968C111.329 118.011 111.158 118.048 110.945 118.08C110.731 118.123 110.539 118.144 110.369 118.144ZM113.716 118.112C113.492 118.112 113.316 118.048 113.188 117.92C113.06 117.792 112.996 117.605 112.996 117.36V107.344C112.996 107.099 113.06 106.917 113.188 106.8C113.316 106.672 113.492 106.608 113.716 106.608C113.951 106.608 114.132 106.672 114.26 106.8C114.388 106.917 114.452 107.099 114.452 107.344V111.904H114.244C114.468 111.296 114.831 110.837 115.332 110.528C115.844 110.219 116.425 110.064 117.076 110.064C117.705 110.064 118.223 110.181 118.628 110.416C119.033 110.64 119.337 110.981 119.54 111.44C119.743 111.899 119.844 112.475 119.844 113.168V117.36C119.844 117.605 119.78 117.792 119.652 117.92C119.535 118.048 119.359 118.112 119.124 118.112C118.889 118.112 118.708 118.048 118.58 117.92C118.452 117.792 118.388 117.605 118.388 117.36V113.248C118.388 112.555 118.255 112.048 117.988 111.728C117.721 111.408 117.295 111.248 116.708 111.248C116.025 111.248 115.476 111.461 115.06 111.888C114.655 112.304 114.452 112.869 114.452 113.584V117.36C114.452 117.861 114.207 118.112 113.716 118.112Z" fill="black"/>
<defs>
<clipPath id="clip0_574_1380">
<rect width="84" height="78" fill="white" transform="translate(18.5 9)"/>
</clipPath>
</defs>
</svg>
